<?xml version="1.0" encoding="UTF-8" standalone="no"?><!DOCTYPE svg PUBLIC "-//W3C//DTD SVG 1.1//EN" "http://www.w3.org/Graphics/SVG/1.1/DTD/svg11.dtd"><svg width="100%" height="100%" viewBox="0 0 796 920" version="1.1" xmlns="http://www.w3.org/2000/svg" xmlns:xlink="http://www.w3.org/1999/xlink" xml:space="preserve" xmlns:serif="http://www.serif.com/" style="fill-rule:evenodd;clip-rule:evenodd;stroke-linejoin:round;stroke-miterlimit:2;"><path id="top-fur" d="M335.159,314.465c-20.713,8.687 -45.189,7.975 -65.81,-4.723c-28.563,-17.589 -44.393,-56.324 -21.594,-92.805c20.481,-32.77 88.055,-88.438 152.113,-89.796c68.621,-1.454 133.455,61.77 151.031,88.941c23.625,36.521 11.869,79.667 -25.618,97.629c-23.319,11.174 -44.146,14.196 -63.157,3.438c-14.254,19.526 -37.293,32.394 -62.727,30.998c-23.841,-1.308 -50.264,-14.74 -64.238,-33.682Zm-67.388,-87.529c11.432,-24.413 71.27,-92.577 132.745,-94.006c60.302,-1.401 117.722,66.941 133.169,90.819c15.896,24.574 7.312,58.036 -17.911,70.122c-18.611,8.918 -34.933,12.09 -49.588,-0.747c-2.553,-2.235 -5.995,-3.168 -9.327,-2.527c-3.332,0.642 -6.182,2.785 -7.722,5.809c-9.093,17.848 -27.531,30.927 -48.534,29.774c-20.146,-1.105 -43.335,-13.334 -51.304,-30.731c-1.31,-2.858 -3.779,-5.019 -6.785,-5.938c-3.007,-0.919 -6.263,-0.508 -8.946,1.13c-15.73,9.599 -37.534,12.572 -52.898,0.237c-20.863,-16.75 -22.839,-42.714 -12.899,-63.942Z"/><path id="ear-right" d="M649.602,61.19c-2.276,23.86 -0.408,65.108 -8.36,99.273c-14.361,61.71 -46.718,114.177 -78.763,144.771c-2.126,2.029 -2.968,5.06 -2.193,7.895c0.775,2.835 3.041,5.017 5.903,5.683c85.125,19.811 174.359,-42.452 195.82,-134.666c13.89,-59.682 -5.491,-114.953 -42.237,-154.514c-12.093,-12.923 -31.027,-16.736 -47.152,-9.512c-16.126,7.224 -20.814,17.974 -23.018,41.07Zm-78.126,250.507c71.963,8.524 156.286,-46.265 168.561,-125.459c9.078,-58.566 0.915,-91.278 -25.647,-132.452c-6.862,-10.635 -26.596,-30.009 -36.487,-25.579c-9.89,4.431 -7.862,33.304 -7.863,33.318c-1.239,17.32 2.036,70.134 -6.315,106.021c-13.551,58.224 -62.119,111.059 -92.249,144.151Z"/><path id="ear-left" d="M147.273,61.19c2.277,23.86 0.409,65.108 8.36,99.273c14.362,61.71 46.719,114.177 78.764,144.771c2.126,2.029 2.968,5.06 2.193,7.895c-0.775,2.835 -3.041,5.017 -5.904,5.683c-85.124,19.811 -174.358,-42.452 -195.819,-134.666c-13.89,-59.682 5.49,-114.953 42.237,-154.514c12.093,-12.923 31.026,-16.736 47.152,-9.512c16.126,7.224 20.814,17.974 23.017,41.07Zm78.127,250.507c-71.963,8.524 -156.286,-46.265 -168.561,-125.459c-9.078,-58.566 -0.915,-91.278 25.647,-132.452c6.861,-10.635 26.596,-30.009 36.486,-25.579c9.891,4.431 7.863,33.304 7.864,33.318c1.239,17.32 -2.037,70.134 6.315,106.021c13.551,58.224 62.119,111.059 92.249,144.151Z"/><path id="snout" d="M478.041,636.515c17.793,19.416 35.395,39.839 48.712,58.246c13.24,18.3 22.172,34.739 23.683,46.091c4.282,33.729 -7.463,60.898 -28.633,80.964c-28.84,27.336 -75.378,41.295 -121.696,41.221c-46.066,-0.177 -92.492,-13.838 -121.335,-40.559c-21.262,-19.698 -33.142,-46.416 -28.602,-80.07c1.647,-12.16 10.198,-28.633 22.644,-46.751c13.05,-18.997 30.338,-39.921 47.91,-59.673c10.006,-11.343 22.212,-20.258 35.705,-26.308c13.463,-6.037 28.202,-9.231 43.294,-9.156c15.058,0.074 29.733,3.391 43.105,9.545c13.339,6.138 25.385,15.09 35.213,26.45Zm-2.667,2.353c16.915,19.916 33.506,40.888 46.128,59.566c11.779,17.432 20.12,32.73 21.248,43.338c3.469,30.829 -7.672,55.326 -27.089,73.529c-27.53,25.81 -71.567,39.123 -115.554,39.194c-43.982,0.169 -88.466,-12.308 -116.22,-37.585c-19.765,-18.002 -30.906,-42.549 -27.007,-73.628c1.432,-11.463 9.559,-26.94 21.1,-44.116c12.73,-18.944 29.645,-39.833 46.853,-59.58c9.4,-10.885 20.912,-19.468 33.669,-25.354c12.787,-5.9 26.819,-9.101 41.224,-9.19c14.439,-0.088 28.545,2.944 41.434,8.702c12.92,5.773 24.618,14.277 34.209,25.118l0.005,0.006Z"/><path id="nose" d="M341.002,668.572c0,-0 10.567,7.847 22.734,16.562c5.062,3.627 10.41,7.331 15.317,10.787c6.73,4.481 14.459,6.953 22.237,6.986c7.778,0.034 15.528,-2.372 22.297,-6.795c6.297,-4.369 13.32,-9.177 19.635,-13.624c10.774,-7.587 19.461,-13.906 19.461,-13.906c1.063,-0.659 1.391,-2.056 0.733,-3.119c-0.658,-1.063 -2.056,-1.392 -3.119,-0.734c-0,0 -9.528,4.96 -21.122,11.225c-6.794,3.671 -14.228,7.816 -20.946,11.506c-5.214,3.056 -11.078,4.291 -16.892,4.267c-5.813,-0.025 -11.667,-1.309 -16.855,-4.409c-5.231,-2.942 -10.876,-6.175 -16.328,-9.184c-13.102,-7.233 -24.733,-13.394 -24.733,-13.394c-1.058,-0.668 -2.458,-0.351 -3.125,0.706c-0.668,1.058 -0.351,2.458 0.706,3.126Z"/><path id="split" d="M398.395,697.317c-0,0 -0.635,-0.332 -3.193,2.726c-0.425,0.508 -0.692,0.884 -0.957,1.635c-0.118,0.336 -0.163,0.705 -0.162,1.09c0.006,2.584 0.752,5.625 1.341,8.722c1.302,6.847 2.971,13.083 2.971,13.083c-0,0.883 0.717,1.6 1.6,1.6c0.883,0 1.6,-0.717 1.6,-1.6c-0,0 1.668,-6.236 2.97,-13.083c0.589,-3.097 1.336,-6.138 1.342,-8.722c0.001,-0.385 -0.044,-0.754 -0.163,-1.09c-0.264,-0.751 -0.531,-1.127 -0.956,-1.635c-2.559,-3.058 -3.193,-2.726 -3.193,-2.726c-0,-0.883 -0.717,-1.6 -1.6,-1.6c-0.883,0 -1.6,0.717 -1.6,1.6Z"/><path id="smile" d="M337.002,741.362c0,-0 10.551,27.119 27.634,46.087c6.512,7.231 14.113,13.077 22.059,16.37c4.219,1.748 8.606,2.647 13.029,2.813c5.893,0.05 11.748,-1.272 17.298,-4.017c6.653,-3.292 12.992,-8.382 18.627,-14.453c5.018,-5.406 9.557,-11.466 13.404,-17.474c9.441,-14.745 14.958,-28.553 14.958,-28.553c1.046,-2.128 0.167,-4.705 -1.961,-5.751c-2.128,-1.047 -4.705,-0.168 -5.751,1.96c0,-0 -13.775,23.16 -31.558,38.58c-4.751,4.12 -9.809,7.574 -15.003,9.76c-3.138,1.32 -6.324,2.111 -9.561,1.976c-4.149,-0.021 -8.193,-1.436 -12.123,-3.579c-4.241,-2.314 -8.354,-5.37 -12.26,-8.843c-17.578,-15.635 -31.043,-38.59 -31.043,-38.59c-1.025,-2.138 -3.593,-3.042 -5.731,-2.017c-2.138,1.025 -3.043,3.593 -2.018,5.731Z"/><path id="eye-right" d="M507.456,503.904c3.367,-9.056 13.84,-28.27 24.112,-32.896c16.403,-7.385 29.117,0.644 35.933,7.034c8.875,8.322 11.406,18.357 16.734,16.613c5.329,-1.744 15.391,-24.342 15.237,-27.079c-0.154,-2.736 -8.509,9.684 -14.717,8.911c-4.195,-0.523 -8.187,-7.384 -7.081,-14.515c0.984,-6.344 3.524,-12.005 2.192,-13.559c-1.332,-1.554 -4.015,10.061 -12.669,9.209c-9.033,-0.889 -21.463,-7.066 -33.531,-3.997c-13.556,3.449 -21.853,10.635 -28.969,24.93c-9.564,19.214 -7.57,48.355 -7.089,53.059c0.482,4.704 6.959,-19.94 9.848,-27.71Z"/><path id="eye-right1" serif:id="eye-right" d="M293.252,503.904c-3.367,-9.056 -13.839,-28.27 -24.112,-32.896c-16.403,-7.385 -29.116,0.644 -35.932,7.034c-8.876,8.322 -11.406,18.357 -16.735,16.613c-5.328,-1.744 -15.39,-24.342 -15.237,-27.079c0.154,-2.736 8.509,9.684 14.718,8.911c4.194,-0.523 8.187,-7.384 7.08,-14.515c-0.984,-6.344 -3.523,-12.005 -2.192,-13.559c1.332,-1.554 4.016,10.061 12.669,9.209c9.033,-0.889 21.463,-7.066 33.531,-3.997c13.556,3.449 21.853,10.635 28.969,24.93c9.564,19.214 7.57,48.355 7.089,53.059c-0.481,4.704 -6.959,-19.94 -9.848,-27.71Z"/></svg>